<?xml version="1.0" standalone="no"?>
<!DOCTYPE svg PUBLIC "-//W3C//DTD SVG 20010904//EN"
 "http://www.w3.org/TR/2001/REC-SVG-20010904/DTD/svg10.dtd">
<svg version="1.0" xmlns="http://www.w3.org/2000/svg"
 width="981.000000pt" height="948.000000pt" viewBox="0 0 981.000000 948.000000"
 preserveAspectRatio="xMidYMid meet">
<metadata>
Created by potrace 1.15, written by Peter Selinger 2001-2017
</metadata>
<g transform="translate(0.000000,948.000000) scale(0.100000,-0.100000)"
fill="#000000" stroke="none">
<path d="M122 9449 c-75 -37 -122 -113 -122 -196 0 -19 140 -395 330 -888
l329 -854 -38 -63 c-200 -330 -359 -843 -402 -1301 -17 -182 -7 -582 20 -757
170 -1143 884 -2177 2166 -3140 1165 -874 2452 -1522 3765 -1895 1134 -323
2265 -427 3010 -279 111 22 274 74 264 84 -5 5 -108 53 -229 108 -614 276
-1643 778 -2230 1087 -868 457 -1789 984 -2210 1265 -843 561 -1635 1292
-2376 2190 -485 588 -967 1290 -1313 1911 -71 127 -88 167 -93 211 -20 197
181 339 355 252 62 -31 78 -51 167 -209 474 -844 1123 -1726 1801 -2450 134
-143 493 -499 620 -616 474 -437 983 -815 1564 -1161 1179 -702 2489 -1381
3914 -2029 192 -88 354 -159 362 -159 8 0 15 18 20 46 16 111 -19 219 -111
344 -27 36 -268 283 -535 550 -599 597 -717 731 -1654 1877 l-368 451 -72 -24
c-103 -36 -411 -110 -554 -134 -301 -51 -582 -78 -889 -87 -255 -7 -282 -2
-352 68 -111 111 -90 301 43 383 45 28 56 30 189 38 439 24 677 46 892 83 118
20 370 75 385 85 12 7 -164 222 -404 495 -38 44 -73 83 -76 87 -3 4 -71 1
-150 -7 -292 -28 -595 -38 -1050 -32 -601 8 -937 30 -1009 66 -89 46 -135 121
-136 221 0 114 73 210 183 239 32 9 94 8 265 -4 491 -34 1196 -42 1412 -15
l60 7 -270 269 c-392 392 -641 595 -1085 889 -950 627 -2031 1070 -2908 1190
-130 17 -429 38 -497 33 l-47 -3 -322 830 c-178 457 -330 844 -338 860 -21 40
-44 60 -98 84 -59 27 -124 27 -178 0z"/>
</g>
</svg>
