<?xml version="1.0" standalone="no"?>
<!DOCTYPE svg PUBLIC "-//W3C//DTD SVG 20010904//EN"
 "http://www.w3.org/TR/2001/REC-SVG-20010904/DTD/svg10.dtd">
<svg version="1.0" xmlns="http://www.w3.org/2000/svg"
 width="225.000000pt" height="225.000000pt" viewBox="0 0 225.000000 225.000000"
 preserveAspectRatio="xMidYMid meet">
<metadata>
Created by potrace 1.15, written by Peter Selinger 2001-2017
</metadata>
<g transform="translate(0.000000,225.000000) scale(0.100000,-0.100000)"
fill="#000000" stroke="none">
<path d="M1056 1586 c-117 -44 -178 -189 -127 -302 17 -37 93 -114 113 -114 4
0 8 -7 8 -16 0 -9 8 -22 17 -29 14 -10 17 -31 17 -119 l1 -106 -400 2 -400 3
3 29 c2 16 10 43 19 59 l15 30 -33 -7 c-44 -8 -205 -89 -244 -122 l-30 -25 30
-25 c39 -32 200 -112 244 -121 l33 -6 -15 29 c-20 41 -27 77 -18 93 7 10 85
13 402 14 l394 2 12 -100 c6 -55 12 -101 12 -102 1 -2 12 -3 25 -3 23 0 24 4
31 88 10 136 -16 122 233 121 362 -1 775 -15 805 -27 l27 -12 0 54 0 53 -62
-13 c-47 -10 -183 -14 -525 -14 l-463 0 0 109 c0 88 3 110 15 115 8 3 15 13
15 23 0 10 17 27 38 40 21 12 51 40 68 64 26 38 29 50 29 124 0 72 -3 86 -27
123 -54 81 -173 121 -262 88z m170 -51 c61 -36 89 -86 89 -161 0 -78 -33 -131
-100 -164 -125 -60 -268 27 -268 164 0 58 18 98 60 138 58 55 148 65 219 23z"/>
</g>
</svg>
